<mxfile host="Electron" agent="Mozilla/5.0 (Windows NT 10.0; Win64; x64) AppleWebKit/537.36 (KHTML, like Gecko) draw.io/24.7.17 Chrome/128.0.6613.36 Electron/32.0.1 Safari/537.36" version="24.7.17">
  <diagram name="Page-1" id="p2E1vab-CS9XBbN9cYHd">
    <mxGraphModel dx="497" dy="871" grid="1" gridSize="10" guides="1" tooltips="1" connect="1" arrows="1" fold="1" page="1" pageScale="1" pageWidth="850" pageHeight="1100" background="none" math="0" shadow="0">
      <root>
        <mxCell id="0" />
        <mxCell id="1" parent="0" />
        <mxCell id="mYxjh_7fLl9tPcHlOz4v-8" style="edgeStyle=orthogonalEdgeStyle;rounded=0;orthogonalLoop=1;jettySize=auto;html=1;exitX=0.5;exitY=1;exitDx=0;exitDy=0;dashed=1;" parent="1" source="mYxjh_7fLl9tPcHlOz4v-3" target="mYxjh_7fLl9tPcHlOz4v-5" edge="1">
          <mxGeometry relative="1" as="geometry" />
        </mxCell>
        <mxCell id="mYxjh_7fLl9tPcHlOz4v-3" value="&lt;font face=&quot;Helvetica&quot;&gt;Web&lt;br&gt;Browser&lt;/font&gt;" style="rounded=1;whiteSpace=wrap;html=1;hachureGap=4;fontFamily=Architects Daughter;fontSource=https%3A%2F%2Ffonts.googleapis.com%2Fcss%3Ffamily%3DArchitects%2BDaughter;" parent="1" vertex="1">
          <mxGeometry x="164.97999999999996" y="160" width="140" height="80" as="geometry" />
        </mxCell>
        <mxCell id="mYxjh_7fLl9tPcHlOz4v-4" value="" style="shape=umlActor;verticalLabelPosition=bottom;verticalAlign=top;html=1;outlineConnect=0;hachureGap=4;fontFamily=Architects Daughter;fontSource=https%3A%2F%2Ffonts.googleapis.com%2Fcss%3Ffamily%3DArchitects%2BDaughter;" parent="1" vertex="1">
          <mxGeometry x="134.95999999999998" y="170" width="20" height="40" as="geometry" />
        </mxCell>
        <mxCell id="HS8TBFIER54Y4iybRSwW-13" style="edgeStyle=orthogonalEdgeStyle;rounded=0;orthogonalLoop=1;jettySize=auto;html=1;endArrow=block;endFill=1;" edge="1" parent="1" source="mYxjh_7fLl9tPcHlOz4v-5" target="HS8TBFIER54Y4iybRSwW-1">
          <mxGeometry relative="1" as="geometry">
            <Array as="points">
              <mxPoint x="230" y="490" />
              <mxPoint x="230" y="490" />
            </Array>
          </mxGeometry>
        </mxCell>
        <mxCell id="mYxjh_7fLl9tPcHlOz4v-5" value="&lt;font face=&quot;Helvetica&quot;&gt;Frontend Server&lt;/font&gt;" style="rounded=1;whiteSpace=wrap;html=1;hachureGap=4;fontFamily=Architects Daughter;fontSource=https%3A%2F%2Ffonts.googleapis.com%2Fcss%3Ffamily%3DArchitects%2BDaughter;" parent="1" vertex="1">
          <mxGeometry x="164.97999999999996" y="380" width="140" height="80" as="geometry" />
        </mxCell>
        <mxCell id="mYxjh_7fLl9tPcHlOz4v-9" value="HTTPS Connection" style="text;html=1;align=center;verticalAlign=middle;whiteSpace=wrap;rounded=0;" parent="1" vertex="1">
          <mxGeometry x="239.99999999999997" y="290" width="60" height="30" as="geometry" />
        </mxCell>
        <mxCell id="mYxjh_7fLl9tPcHlOz4v-10" value="&lt;font face=&quot;Helvetica&quot;&gt;Database&lt;/font&gt;" style="rounded=1;whiteSpace=wrap;html=1;hachureGap=4;fontFamily=Architects Daughter;fontSource=https%3A%2F%2Ffonts.googleapis.com%2Fcss%3Ffamily%3DArchitects%2BDaughter;" parent="1" vertex="1">
          <mxGeometry x="382.02" y="820" width="140" height="80" as="geometry" />
        </mxCell>
        <mxCell id="mYxjh_7fLl9tPcHlOz4v-15" value="" style="endArrow=classic;html=1;rounded=0;" parent="1" edge="1">
          <mxGeometry width="50" height="50" relative="1" as="geometry">
            <mxPoint x="109.99999999999996" y="584.14" as="sourcePoint" />
            <mxPoint x="149.99999999999994" y="584.14" as="targetPoint" />
            <Array as="points">
              <mxPoint x="99.99999999999996" y="584.14" />
            </Array>
          </mxGeometry>
        </mxCell>
        <mxCell id="mYxjh_7fLl9tPcHlOz4v-16" value="" style="endArrow=none;html=1;rounded=0;" parent="1" edge="1">
          <mxGeometry width="50" height="50" relative="1" as="geometry">
            <mxPoint x="119.99999999999996" y="594.14" as="sourcePoint" />
            <mxPoint x="119.99999999999996" y="574.14" as="targetPoint" />
            <Array as="points">
              <mxPoint x="119.99999999999996" y="584.14" />
            </Array>
          </mxGeometry>
        </mxCell>
        <mxCell id="mYxjh_7fLl9tPcHlOz4v-33" style="edgeStyle=orthogonalEdgeStyle;rounded=0;orthogonalLoop=1;jettySize=auto;html=1;exitX=0.25;exitY=1;exitDx=0;exitDy=0;entryX=0.5;entryY=0;entryDx=0;entryDy=0;" parent="1" source="mYxjh_7fLl9tPcHlOz4v-19" target="mYxjh_7fLl9tPcHlOz4v-32" edge="1">
          <mxGeometry relative="1" as="geometry" />
        </mxCell>
        <mxCell id="HS8TBFIER54Y4iybRSwW-11" style="edgeStyle=orthogonalEdgeStyle;rounded=0;orthogonalLoop=1;jettySize=auto;html=1;startArrow=classic;startFill=1;endArrow=none;endFill=0;" edge="1" parent="1" source="mYxjh_7fLl9tPcHlOz4v-19" target="HS8TBFIER54Y4iybRSwW-1">
          <mxGeometry relative="1" as="geometry">
            <Array as="points">
              <mxPoint x="290" y="730" />
              <mxPoint x="290" y="630" />
              <mxPoint x="235" y="630" />
            </Array>
          </mxGeometry>
        </mxCell>
        <mxCell id="mYxjh_7fLl9tPcHlOz4v-19" value="Web scraping" style="rounded=1;whiteSpace=wrap;html=1;hachureGap=4;fontFamily=Helvetica;" parent="1" vertex="1">
          <mxGeometry x="80" y="690" width="140" height="80" as="geometry" />
        </mxCell>
        <mxCell id="mYxjh_7fLl9tPcHlOz4v-20" value="" style="endArrow=classic;html=1;rounded=0;" parent="1" edge="1">
          <mxGeometry width="50" height="50" relative="1" as="geometry">
            <mxPoint x="114.96" y="440" as="sourcePoint" />
            <mxPoint x="154.96000000000004" y="440" as="targetPoint" />
            <Array as="points">
              <mxPoint x="104.96" y="440" />
            </Array>
          </mxGeometry>
        </mxCell>
        <mxCell id="mYxjh_7fLl9tPcHlOz4v-21" value="" style="endArrow=none;html=1;rounded=0;" parent="1" edge="1">
          <mxGeometry width="50" height="50" relative="1" as="geometry">
            <mxPoint x="124.96" y="450" as="sourcePoint" />
            <mxPoint x="124.96" y="430" as="targetPoint" />
            <Array as="points">
              <mxPoint x="124.96" y="440" />
            </Array>
          </mxGeometry>
        </mxCell>
        <mxCell id="mYxjh_7fLl9tPcHlOz4v-28" value="&lt;font face=&quot;Helvetica&quot;&gt;Technical analysis node&lt;/font&gt;" style="rounded=1;whiteSpace=wrap;html=1;hachureGap=4;fontFamily=Architects Daughter;fontSource=https%3A%2F%2Ffonts.googleapis.com%2Fcss%3Ffamily%3DArchitects%2BDaughter;" parent="1" vertex="1">
          <mxGeometry x="690" y="524.14" width="140" height="80" as="geometry" />
        </mxCell>
        <mxCell id="mYxjh_7fLl9tPcHlOz4v-32" value="MSE Web site" style="ellipse;whiteSpace=wrap;html=1;aspect=fixed;" parent="1" vertex="1">
          <mxGeometry x="100" y="840" width="70" height="70" as="geometry" />
        </mxCell>
        <mxCell id="mYxjh_7fLl9tPcHlOz4v-36" value="&lt;font face=&quot;Helvetica&quot;&gt;Fundamental analysis node&lt;/font&gt;" style="rounded=1;whiteSpace=wrap;html=1;hachureGap=4;fontFamily=Architects Daughter;fontSource=https%3A%2F%2Ffonts.googleapis.com%2Fcss%3Ffamily%3DArchitects%2BDaughter;" parent="1" vertex="1">
          <mxGeometry x="640" y="310" width="140" height="80" as="geometry" />
        </mxCell>
        <mxCell id="HS8TBFIER54Y4iybRSwW-14" style="edgeStyle=orthogonalEdgeStyle;rounded=0;orthogonalLoop=1;jettySize=auto;html=1;endArrow=async;endFill=1;" edge="1" parent="1" source="HS8TBFIER54Y4iybRSwW-1" target="HS8TBFIER54Y4iybRSwW-10">
          <mxGeometry relative="1" as="geometry" />
        </mxCell>
        <mxCell id="HS8TBFIER54Y4iybRSwW-15" style="edgeStyle=orthogonalEdgeStyle;rounded=0;orthogonalLoop=1;jettySize=auto;html=1;dashed=1;" edge="1" parent="1" source="HS8TBFIER54Y4iybRSwW-1" target="mYxjh_7fLl9tPcHlOz4v-10">
          <mxGeometry relative="1" as="geometry">
            <Array as="points">
              <mxPoint x="350" y="590" />
              <mxPoint x="350" y="712" />
              <mxPoint x="452" y="712" />
            </Array>
          </mxGeometry>
        </mxCell>
        <mxCell id="HS8TBFIER54Y4iybRSwW-1" value="&lt;font face=&quot;Helvetica&quot;&gt;Backend Server&lt;/font&gt;" style="rounded=1;whiteSpace=wrap;html=1;hachureGap=4;fontFamily=Architects Daughter;fontSource=https%3A%2F%2Ffonts.googleapis.com%2Fcss%3Ffamily%3DArchitects%2BDaughter;" vertex="1" parent="1">
          <mxGeometry x="164.97999999999996" y="524.14" width="140" height="80" as="geometry" />
        </mxCell>
        <mxCell id="HS8TBFIER54Y4iybRSwW-2" value="" style="html=1;shadow=0;dashed=0;align=center;verticalAlign=middle;shape=mxgraph.arrows2.uTurnArrow;dy=5.41;arrowHead=17.57;dx2=14.68;rotation=90;aspect=fixed;" vertex="1" parent="1">
          <mxGeometry x="119.96" y="524.14" width="30.04" height="38.29" as="geometry" />
        </mxCell>
        <mxCell id="HS8TBFIER54Y4iybRSwW-4" value="" style="html=1;shadow=0;dashed=0;align=center;verticalAlign=middle;shape=mxgraph.arrows2.uTurnArrow;dy=5.41;arrowHead=17.57;dx2=14.68;rotation=90;aspect=fixed;" vertex="1" parent="1">
          <mxGeometry x="40" y="690" width="30.04" height="38.29" as="geometry" />
        </mxCell>
        <mxCell id="HS8TBFIER54Y4iybRSwW-5" value="" style="endArrow=classic;html=1;rounded=0;" edge="1" parent="1">
          <mxGeometry width="50" height="50" relative="1" as="geometry">
            <mxPoint x="336.99999999999994" y="840" as="sourcePoint" />
            <mxPoint x="376.99999999999994" y="840" as="targetPoint" />
            <Array as="points">
              <mxPoint x="326.99999999999994" y="840" />
            </Array>
          </mxGeometry>
        </mxCell>
        <mxCell id="HS8TBFIER54Y4iybRSwW-6" value="" style="endArrow=none;html=1;rounded=0;" edge="1" parent="1">
          <mxGeometry width="50" height="50" relative="1" as="geometry">
            <mxPoint x="346.99999999999994" y="850" as="sourcePoint" />
            <mxPoint x="346.99999999999994" y="830" as="targetPoint" />
            <Array as="points">
              <mxPoint x="346.99999999999994" y="840" />
            </Array>
          </mxGeometry>
        </mxCell>
        <mxCell id="HS8TBFIER54Y4iybRSwW-8" value="&lt;span style=&quot;text-wrap: nowrap;&quot;&gt;Prediction Node&lt;/span&gt;" style="rounded=1;whiteSpace=wrap;html=1;" vertex="1" parent="1">
          <mxGeometry x="650" y="740" width="140" height="80" as="geometry" />
        </mxCell>
        <mxCell id="HS8TBFIER54Y4iybRSwW-9" value="" style="shape=umlActor;verticalLabelPosition=bottom;verticalAlign=top;html=1;outlineConnect=0;hachureGap=4;fontFamily=Architects Daughter;fontSource=https%3A%2F%2Ffonts.googleapis.com%2Fcss%3Ffamily%3DArchitects%2BDaughter;" vertex="1" parent="1">
          <mxGeometry x="129.98000000000002" y="380" width="20" height="40" as="geometry" />
        </mxCell>
        <mxCell id="HS8TBFIER54Y4iybRSwW-16" style="edgeStyle=orthogonalEdgeStyle;rounded=0;orthogonalLoop=1;jettySize=auto;html=1;endArrow=openAsync;endFill=0;" edge="1" parent="1" source="HS8TBFIER54Y4iybRSwW-10" target="mYxjh_7fLl9tPcHlOz4v-36">
          <mxGeometry relative="1" as="geometry">
            <Array as="points">
              <mxPoint x="520" y="440" />
              <mxPoint x="710" y="440" />
            </Array>
          </mxGeometry>
        </mxCell>
        <mxCell id="HS8TBFIER54Y4iybRSwW-17" style="edgeStyle=orthogonalEdgeStyle;rounded=0;orthogonalLoop=1;jettySize=auto;html=1;endArrow=openAsync;endFill=0;" edge="1" parent="1" source="HS8TBFIER54Y4iybRSwW-10" target="HS8TBFIER54Y4iybRSwW-8">
          <mxGeometry relative="1" as="geometry">
            <Array as="points">
              <mxPoint x="520" y="664" />
              <mxPoint x="720" y="664" />
            </Array>
          </mxGeometry>
        </mxCell>
        <mxCell id="HS8TBFIER54Y4iybRSwW-18" style="edgeStyle=orthogonalEdgeStyle;rounded=0;orthogonalLoop=1;jettySize=auto;html=1;" edge="1" parent="1" source="HS8TBFIER54Y4iybRSwW-10" target="mYxjh_7fLl9tPcHlOz4v-28">
          <mxGeometry relative="1" as="geometry" />
        </mxCell>
        <mxCell id="HS8TBFIER54Y4iybRSwW-10" value="&lt;font face=&quot;Helvetica&quot;&gt;Analysis Node&lt;/font&gt;" style="rounded=1;whiteSpace=wrap;html=1;hachureGap=4;fontFamily=Architects Daughter;fontSource=https%3A%2F%2Ffonts.googleapis.com%2Fcss%3Ffamily%3DArchitects%2BDaughter;" vertex="1" parent="1">
          <mxGeometry x="420" y="524.14" width="140" height="80" as="geometry" />
        </mxCell>
        <mxCell id="HS8TBFIER54Y4iybRSwW-12" value="" style="curved=0;endArrow=classic;html=1;rounded=0;" edge="1" parent="1">
          <mxGeometry width="50" height="50" relative="1" as="geometry">
            <mxPoint x="290" y="730" as="sourcePoint" />
            <mxPoint x="280" y="710" as="targetPoint" />
            <Array as="points">
              <mxPoint x="250" y="730" />
              <mxPoint x="250" y="720" />
              <mxPoint x="250" y="710" />
            </Array>
          </mxGeometry>
        </mxCell>
        <mxCell id="HS8TBFIER54Y4iybRSwW-19" value="Database Connection" style="text;html=1;align=center;verticalAlign=middle;resizable=0;points=[];autosize=1;strokeColor=none;fillColor=none;" vertex="1" parent="1">
          <mxGeometry x="350" y="680" width="140" height="30" as="geometry" />
        </mxCell>
        <mxCell id="HS8TBFIER54Y4iybRSwW-22" value="" style="endArrow=classic;html=1;rounded=0;" edge="1" parent="1">
          <mxGeometry width="50" height="50" relative="1" as="geometry">
            <mxPoint x="590" y="320" as="sourcePoint" />
            <mxPoint x="630" y="320" as="targetPoint" />
            <Array as="points">
              <mxPoint x="580" y="320" />
            </Array>
          </mxGeometry>
        </mxCell>
        <mxCell id="HS8TBFIER54Y4iybRSwW-23" value="" style="endArrow=none;html=1;rounded=0;" edge="1" parent="1">
          <mxGeometry width="50" height="50" relative="1" as="geometry">
            <mxPoint x="600" y="330" as="sourcePoint" />
            <mxPoint x="600" y="310" as="targetPoint" />
            <Array as="points">
              <mxPoint x="600" y="320" />
            </Array>
          </mxGeometry>
        </mxCell>
        <mxCell id="HS8TBFIER54Y4iybRSwW-24" value="" style="endArrow=classic;html=1;rounded=0;" edge="1" parent="1">
          <mxGeometry width="50" height="50" relative="1" as="geometry">
            <mxPoint x="640" y="534.14" as="sourcePoint" />
            <mxPoint x="680" y="534.14" as="targetPoint" />
            <Array as="points">
              <mxPoint x="630" y="534.14" />
            </Array>
          </mxGeometry>
        </mxCell>
        <mxCell id="HS8TBFIER54Y4iybRSwW-25" value="" style="endArrow=none;html=1;rounded=0;" edge="1" parent="1">
          <mxGeometry width="50" height="50" relative="1" as="geometry">
            <mxPoint x="650" y="544.14" as="sourcePoint" />
            <mxPoint x="650" y="524.14" as="targetPoint" />
            <Array as="points">
              <mxPoint x="650" y="534.14" />
            </Array>
          </mxGeometry>
        </mxCell>
        <mxCell id="HS8TBFIER54Y4iybRSwW-26" value="" style="endArrow=classic;html=1;rounded=0;" edge="1" parent="1">
          <mxGeometry width="50" height="50" relative="1" as="geometry">
            <mxPoint x="600" y="750" as="sourcePoint" />
            <mxPoint x="640" y="750" as="targetPoint" />
            <Array as="points">
              <mxPoint x="590" y="750" />
            </Array>
          </mxGeometry>
        </mxCell>
        <mxCell id="HS8TBFIER54Y4iybRSwW-27" value="" style="endArrow=none;html=1;rounded=0;" edge="1" parent="1">
          <mxGeometry width="50" height="50" relative="1" as="geometry">
            <mxPoint x="610" y="760" as="sourcePoint" />
            <mxPoint x="610" y="740" as="targetPoint" />
            <Array as="points">
              <mxPoint x="610" y="750" />
            </Array>
          </mxGeometry>
        </mxCell>
        <mxCell id="HS8TBFIER54Y4iybRSwW-28" value="" style="html=1;shadow=0;dashed=0;align=center;verticalAlign=middle;shape=mxgraph.arrows2.uTurnArrow;dy=5.41;arrowHead=17.57;dx2=14.68;rotation=90;aspect=fixed;" vertex="1" parent="1">
          <mxGeometry x="382.02" y="510" width="30.04" height="38.29" as="geometry" />
        </mxCell>
        <mxCell id="HS8TBFIER54Y4iybRSwW-30" value="&lt;font style=&quot;font-size: 14px;&quot;&gt;Some components have multiple stereotypes meaning at a given time they behave to one of those stereotypes.But their main stereotype is the upper one.&lt;/font&gt;" style="shape=note;backgroundOutline=1;darkOpacity=0.05;size=25;whiteSpace=wrap;html=1;fillColor=#a20025;fontColor=#ffffff;strokeColor=#6F0000;" vertex="1" parent="1">
          <mxGeometry x="540" y="90" width="280" height="180" as="geometry" />
        </mxCell>
        <mxCell id="HS8TBFIER54Y4iybRSwW-31" value="&lt;font style=&quot;font-size: 28px;&quot;&gt;Execution view Model&lt;/font&gt;" style="text;html=1;align=center;verticalAlign=middle;resizable=0;points=[];autosize=1;strokeColor=none;fillColor=none;" vertex="1" parent="1">
          <mxGeometry x="232.02" y="60" width="290" height="50" as="geometry" />
        </mxCell>
      </root>
    </mxGraphModel>
  </diagram>
</mxfile>
